<svg width="579" height="218" viewBox="0 0 579 218" fill="none" xmlns="http://www.w3.org/2000/svg">
<rect x="4.94531" y="5.84961" width="569.112" height="204" fill="#060605" fill-opacity="0.5"/>
<path d="M4.94531 4.28976C8.07869 4.28976 11.1622 4.41126 14.2756 4.28976C15.8037 4.26282 17.3318 4.34718 18.8459 4.5421H19.6143C20.7419 3.77574 21.8895 4.48602 23.0271 4.48602C23.9152 4.75705 24.8432 4.20565 25.7214 4.60752C27.0186 3.95331 27.9566 4.55144 29.0643 4.37387C29.2872 4.49088 29.5373 4.55505 29.7928 4.56079C32.0081 4.05612 34.2533 4.43929 36.4886 4.34584C36.8332 4.29014 37.1877 4.35322 37.4865 4.52341C37.8135 4.81061 38.2408 4.97657 38.6889 4.99033C39.1369 5.00409 39.575 4.8647 39.9213 4.59817C40.1608 4.43929 40.3405 4.0935 40.7097 4.24303C42.7054 5.06546 44.7611 4.35518 46.7569 4.45799C52.3729 4.7851 58.0052 4.7851 63.6212 4.45799C67.7625 4.45799 71.9236 4.45799 76.0649 4.23369C76.6237 4.23369 77.3721 4.23369 77.4619 4.68228C77.3821 5.03742 78.0008 5.13088 78.3301 4.84116C79.6673 3.65425 81.4036 4.40191 83.0002 4.28041C84.4476 4.20811 85.8987 4.23935 87.341 4.37387C88.5884 4.45799 89.9555 4.47668 91.2528 4.6449C91.632 4.69163 91.9712 4.83182 92.3006 4.55144C92.5014 4.38019 92.7424 4.25546 93.0041 4.18729C93.2658 4.11912 93.5409 4.1094 93.8074 4.15892C94.0896 4.13557 94.3734 4.13557 94.6556 4.15892C95.8079 4.34574 96.9859 4.34574 98.1382 4.15892C99.1361 4.59817 100.633 3.51406 101.441 4.89724C104.275 5.25238 107.059 4.60752 109.893 4.49537C115.382 4.28041 120.87 4.71032 126.349 4.72901C129.731 4.72901 133.104 4.28976 136.547 4.56079C138.283 4.70098 140.539 5.62621 142.205 4.84116C143.333 4.32714 143.861 3.84116 144.58 4.37387C144.979 4.1963 145.488 4.42995 145.857 4.0935C145.288 5.71967 147.544 4.26172 147.344 4.25238C148.122 4.25238 148.931 4.62621 149.679 4.20565C151.495 4.11219 153.85 4.0935 155.946 4.11219C162.193 4.16827 168.559 3.972 174.606 4.11219C176.235 4.07231 177.86 4.26454 179.426 4.68228C181.731 5.17761 184.086 4.18696 186.411 4.40191C190.623 4.79443 194.844 4.40191 199.055 4.52341C201.767 4.57273 204.479 4.46974 207.178 4.21499C211.138 3.80854 215.136 3.82735 219.092 4.27107C222.425 4.71032 225.798 4.27107 229.151 4.34584C234.929 4.45799 240.687 3.81313 246.474 4.20565C249.658 4.42995 252.871 4.25238 256.064 4.28976C260.287 4.4876 264.518 4.45639 268.737 4.1963C269.785 3.88789 270.893 4.1963 271.951 3.98135C273.058 4.13088 274.046 4.58883 275.144 4.10284C275.383 4.10284 275.673 4.10284 275.902 4.10284C277.249 4.00004 278.537 3.972 279.894 3.9907C279.974 4.46733 280.253 4.56079 280.772 4.49537C281.255 4.20794 281.794 4.01409 282.359 3.92527C282.658 3.98135 283.017 3.92527 283.187 4.26172C283.204 4.36641 283.247 4.46583 283.313 4.5519C283.379 4.63797 283.466 4.70826 283.566 4.75705C283.787 4.81475 284.015 4.84922 284.245 4.85985C285.307 4.9541 286.375 4.75597 287.318 4.28976C287.486 4.2618 287.659 4.2618 287.827 4.28976C288.106 4.37559 288.401 4.40823 288.694 4.38576C288.987 4.36329 289.273 4.28616 289.533 4.15892C289.782 4.14029 290.033 4.14029 290.282 4.15892C290.831 4.33649 291.389 4.47668 291.918 4.68228C292.537 5.21499 293.146 4.11219 293.754 4.68228C294.09 4.8889 294.481 5.00439 294.882 5.01594C295.284 5.02748 295.681 4.93464 296.03 4.7477C297.417 3.73836 299.173 4.55144 300.68 4.02808L301.229 4.07481C301.866 4.16542 302.496 4.29657 303.115 4.46733C303.594 4.68228 304.033 5.0935 304.631 4.70098C304.731 4.61686 304.771 4.24303 304.871 4.14957C304.971 4.05612 305.081 4.35518 305.15 4.27107C305.22 4.18696 305.47 3.9907 305.619 3.9907C309.81 4.14023 313.962 3.9907 318.153 3.9907C323.521 3.9907 328.9 4.48602 334.279 4.20565C335.825 4.13088 337.552 3.90658 338.889 4.42995C339.887 4.81313 340.196 5.21499 340.835 4.42995C341.304 3.85985 342.282 3.972 342.831 4.13088C344.298 4.55144 345.675 4.22434 347.112 4.23369C347.87 3.7664 348.648 4.18696 349.407 4.41126C350.025 4.45799 350.504 3.73836 351.223 4.00939C352.869 4.61686 354.586 4.0935 356.212 4.08415C360.364 4.08415 364.475 4.01873 368.626 3.92527C372.468 3.85051 376.21 4.00004 380.052 3.92527C383.253 3.81901 386.457 3.87517 389.652 4.0935C390.21 4.0935 390.56 4.61686 391.049 4.42995C393.743 4.34584 401.277 4.42995 401.277 4.42995V5.79443H4.94531V4.28976Z" fill="#F2E8D9" fill-opacity="0.5"/>
<path d="M398.332 4.28976C399.752 4.28976 401.15 4.41126 402.562 4.28976C403.254 4.26282 403.947 4.34718 404.634 4.5421H404.982C405.493 3.77574 406.013 4.48602 406.529 4.48602C406.932 4.75705 407.352 4.20565 407.75 4.60752C408.339 3.95331 408.764 4.55144 409.266 4.37387C409.367 4.49088 409.48 4.55505 409.596 4.56079C410.6 4.05612 411.618 4.43929 412.632 4.34584C412.788 4.29014 412.949 4.35322 413.084 4.52341C413.232 4.81061 413.426 4.97657 413.629 4.99033C413.832 5.00409 414.031 4.8647 414.188 4.59817C414.296 4.43929 414.378 4.0935 414.545 4.24303C415.45 5.06546 416.382 4.35518 417.287 4.45799C419.832 4.7851 422.386 4.7851 424.932 4.45799C426.809 4.45799 428.695 4.45799 430.573 4.23369C430.826 4.23369 431.165 4.23369 431.206 4.68228C431.17 5.03742 431.45 5.13088 431.6 4.84116C432.206 3.65425 432.993 4.40191 433.717 4.28041C434.373 4.20811 435.031 4.23935 435.685 4.37387C436.25 4.45799 436.87 4.47668 437.458 4.6449C437.63 4.69163 437.784 4.83182 437.933 4.55144C438.024 4.38019 438.133 4.25546 438.252 4.18729C438.371 4.11912 438.495 4.1094 438.616 4.15892C438.744 4.13557 438.873 4.13557 439.001 4.15892C439.523 4.34574 440.057 4.34574 440.579 4.15892C441.032 4.59817 441.71 3.51406 442.077 4.89724C443.361 5.25238 444.624 4.60752 445.908 4.49537C448.396 4.28041 450.884 4.71032 453.368 4.72901C454.902 4.72901 456.431 4.28976 457.991 4.56079C458.778 4.70098 459.801 5.62621 460.556 4.84116C461.067 4.32714 461.307 3.84116 461.633 4.37387C461.814 4.1963 462.045 4.42995 462.212 4.0935C461.954 5.71967 462.976 4.26172 462.886 4.25238C463.239 4.25238 463.605 4.62621 463.944 4.20565C464.768 4.11219 465.835 4.0935 466.785 4.11219C469.617 4.16827 472.503 3.972 475.245 4.11219C475.983 4.07231 476.72 4.26454 477.43 4.68228C478.475 5.17761 479.542 4.18696 480.596 4.40191C482.505 4.79443 484.419 4.40191 486.328 4.52341C487.557 4.57273 488.787 4.46974 490.01 4.21499C491.806 3.80854 493.618 3.82735 495.412 4.27107C496.923 4.71032 498.452 4.27107 499.972 4.34584C502.591 4.45799 505.201 3.81313 507.825 4.20565C509.268 4.42995 510.725 4.25238 512.172 4.28976C514.087 4.4876 516.005 4.45639 517.917 4.1963C518.392 3.88789 518.894 4.1963 519.374 3.98135C519.876 4.13088 520.324 4.58883 520.822 4.10284C520.93 4.10284 521.061 4.10284 521.165 4.10284C521.776 4.00004 522.36 3.972 522.975 3.9907C523.011 4.46733 523.138 4.56079 523.373 4.49537C523.592 4.20794 523.836 4.01409 524.092 3.92527C524.228 3.98135 524.391 3.92527 524.468 4.26172C524.475 4.36641 524.495 4.46583 524.525 4.5519C524.555 4.63797 524.594 4.70826 524.64 4.75705C524.74 4.81475 524.843 4.84922 524.947 4.85985C525.429 4.9541 525.913 4.75597 526.341 4.28976C526.417 4.2618 526.495 4.2618 526.571 4.28976C526.698 4.37559 526.832 4.40823 526.964 4.38576C527.097 4.36329 527.227 4.28616 527.345 4.15892C527.458 4.14029 527.571 4.14029 527.684 4.15892C527.933 4.33649 528.186 4.47668 528.426 4.68228C528.706 5.21499 528.982 4.11219 529.258 4.68228C529.411 4.8889 529.588 5.00439 529.77 5.01594C529.952 5.02748 530.132 4.93464 530.29 4.7477C530.919 3.73836 531.715 4.55144 532.398 4.02808L532.647 4.07481C532.936 4.16542 533.221 4.29657 533.502 4.46733C533.719 4.68228 533.918 5.0935 534.189 4.70098C534.235 4.61686 534.253 4.24303 534.298 4.14957C534.343 4.05612 534.393 4.35518 534.424 4.27107C534.456 4.18696 534.569 3.9907 534.637 3.9907C536.537 4.14023 538.419 3.9907 540.319 3.9907C542.753 3.9907 545.191 4.48602 547.629 4.20565C548.331 4.13088 549.113 3.90658 549.719 4.42995C550.172 4.81313 550.312 5.21499 550.601 4.42995C550.814 3.85985 551.257 3.972 551.506 4.13088C552.171 4.55144 552.795 4.22434 553.447 4.23369C553.791 3.7664 554.144 4.18696 554.487 4.41126C554.768 4.45799 554.985 3.73836 555.311 4.00939C556.057 4.61686 556.835 4.0935 557.573 4.08415C559.454 4.08415 561.318 4.01873 563.2 3.92527C564.942 3.85051 566.638 4.00004 568.38 3.92527C569.831 3.81901 571.284 3.87517 572.732 4.0935C572.985 4.0935 573.143 4.61686 573.365 4.42995C574.586 4.34584 578.002 4.42995 578.002 4.42995V5.79443H398.332V4.28976Z" fill="#F2E8D9" fill-opacity="0.5"/>
<path d="M574.055 212.3C570.921 212.3 567.838 212.178 564.724 212.3C563.196 212.327 561.668 212.242 560.154 212.047H559.386C558.258 212.814 557.111 212.103 555.973 212.103C555.085 211.832 554.157 212.384 553.279 211.982C551.981 212.636 551.043 212.038 549.936 212.215C549.713 212.098 549.463 212.034 549.207 212.029C546.992 212.533 544.747 212.15 542.511 212.244C542.167 212.299 541.812 212.236 541.514 212.066C541.187 211.779 540.759 211.613 540.311 211.599C539.863 211.585 539.425 211.725 539.079 211.991C538.839 212.15 538.66 212.496 538.29 212.346C536.295 211.524 534.239 212.234 532.243 212.131C526.627 211.804 520.995 211.804 515.379 212.131C511.238 212.131 507.076 212.131 502.935 212.356C502.376 212.356 501.628 212.356 501.538 211.907C501.618 211.552 500.999 211.458 500.67 211.748C499.333 212.935 497.596 212.187 496 212.309C494.552 212.381 493.101 212.35 491.659 212.215C490.412 212.131 489.044 212.113 487.747 211.944C487.368 211.898 487.029 211.758 486.699 212.038C486.499 212.209 486.258 212.334 485.996 212.402C485.734 212.47 485.459 212.48 485.193 212.43C484.91 212.454 484.627 212.454 484.344 212.43C483.192 212.244 482.014 212.244 480.862 212.43C479.864 211.991 478.367 213.075 477.559 211.692C474.725 211.337 471.941 211.982 469.107 212.094C463.618 212.309 458.13 211.879 452.651 211.86C449.269 211.86 445.896 212.3 442.453 212.029C440.717 211.888 438.461 210.963 436.795 211.748C435.667 212.262 435.139 212.748 434.42 212.215C434.021 212.393 433.512 212.159 433.143 212.496C433.712 210.87 431.456 212.328 431.656 212.337C430.878 212.337 430.069 211.963 429.321 212.384C427.505 212.477 425.15 212.496 423.054 212.477C416.807 212.421 410.441 212.617 404.394 212.477C402.765 212.517 401.14 212.325 399.574 211.907C397.269 211.412 394.914 212.402 392.589 212.187C388.377 211.795 384.156 212.187 379.945 212.066C377.233 212.017 374.521 212.12 371.822 212.374C367.862 212.781 363.864 212.762 359.908 212.318C356.575 211.879 353.202 212.318 349.849 212.244C344.071 212.131 338.313 212.776 332.526 212.384C329.342 212.159 326.129 212.337 322.936 212.3C318.713 212.102 314.482 212.133 310.263 212.393C309.215 212.701 308.107 212.393 307.049 212.608C305.942 212.458 304.954 212.001 303.856 212.487C303.617 212.487 303.327 212.487 303.098 212.487C301.751 212.589 300.463 212.617 299.106 212.599C299.026 212.122 298.747 212.029 298.228 212.094C297.745 212.381 297.206 212.575 296.641 212.664C296.342 212.608 295.983 212.664 295.813 212.328C295.796 212.223 295.753 212.124 295.687 212.037C295.621 211.951 295.534 211.881 295.434 211.832C295.213 211.775 294.985 211.74 294.755 211.73C293.693 211.635 292.625 211.833 291.682 212.3C291.514 212.328 291.341 212.328 291.173 212.3C290.894 212.214 290.599 212.181 290.306 212.204C290.013 212.226 289.727 212.303 289.467 212.43C289.218 212.449 288.967 212.449 288.718 212.43C288.169 212.253 287.611 212.113 287.082 211.907C286.463 211.374 285.854 212.477 285.246 211.907C284.91 211.7 284.519 211.585 284.118 211.573C283.716 211.562 283.319 211.655 282.97 211.842C281.583 212.851 279.827 212.038 278.32 212.561L277.771 212.515C277.134 212.424 276.504 212.293 275.885 212.122C275.406 211.907 274.967 211.496 274.369 211.888C274.269 211.972 274.229 212.346 274.129 212.44C274.029 212.533 273.919 212.234 273.85 212.318C273.78 212.402 273.53 212.599 273.381 212.599C269.19 212.449 265.038 212.599 260.847 212.599C255.479 212.599 250.1 212.103 244.721 212.384C243.175 212.458 241.448 212.683 240.111 212.159C239.113 211.776 238.804 211.374 238.165 212.159C237.696 212.73 236.718 212.617 236.169 212.458C234.702 212.038 233.325 212.365 231.888 212.356C231.13 212.823 230.352 212.402 229.593 212.178C228.975 212.131 228.496 212.851 227.777 212.58C226.131 211.972 224.414 212.496 222.788 212.505C218.636 212.505 214.525 212.571 210.374 212.664C206.532 212.739 202.79 212.589 198.948 212.664C195.747 212.77 192.543 212.714 189.348 212.496C188.79 212.496 188.44 211.972 187.951 212.159C185.257 212.244 177.723 212.159 177.723 212.159V210.795H574.055V212.3Z" fill="#F2E8D9" fill-opacity="0.5"/>
<path d="M180.668 212.3C179.248 212.3 177.85 212.178 176.438 212.3C175.746 212.327 175.053 212.242 174.366 212.047H174.018C173.507 212.814 172.987 212.103 172.471 212.103C172.068 211.832 171.648 212.384 171.25 211.982C170.661 212.636 170.236 212.038 169.734 212.215C169.633 212.098 169.52 212.034 169.404 212.029C168.4 212.533 167.382 212.15 166.368 212.244C166.212 212.299 166.051 212.236 165.916 212.066C165.768 211.779 165.574 211.613 165.371 211.599C165.168 211.585 164.969 211.725 164.812 211.991C164.704 212.15 164.622 212.496 164.455 212.346C163.55 211.524 162.618 212.234 161.713 212.131C159.168 211.804 156.614 211.804 154.068 212.131C152.191 212.131 150.305 212.131 148.427 212.356C148.174 212.356 147.835 212.356 147.794 211.907C147.83 211.552 147.55 211.458 147.4 211.748C146.794 212.935 146.007 212.187 145.283 212.309C144.627 212.381 143.969 212.35 143.315 212.215C142.75 212.131 142.13 212.113 141.542 211.944C141.37 211.898 141.216 211.758 141.067 212.038C140.976 212.209 140.867 212.334 140.748 212.402C140.629 212.47 140.505 212.48 140.384 212.43C140.256 212.454 140.127 212.454 139.999 212.43C139.477 212.244 138.943 212.244 138.421 212.43C137.968 211.991 137.29 213.075 136.923 211.692C135.639 211.337 134.376 211.982 133.092 212.094C130.604 212.309 128.116 211.879 125.632 211.86C124.098 211.86 122.569 212.3 121.009 212.029C120.222 211.888 119.199 210.963 118.444 211.748C117.933 212.262 117.693 212.748 117.367 212.215C117.186 212.393 116.955 212.159 116.788 212.496C117.046 210.87 116.024 212.328 116.114 212.337C115.761 212.337 115.395 211.963 115.056 212.384C114.232 212.477 113.165 212.496 112.215 212.477C109.383 212.421 106.497 212.617 103.755 212.477C103.017 212.517 102.28 212.325 101.57 211.907C100.525 211.412 99.4576 212.402 98.4036 212.187C96.4946 211.795 94.581 212.187 92.672 212.066C91.4427 212.017 90.213 212.12 88.9897 212.374C87.1941 212.781 85.3818 212.762 83.5883 212.318C82.0774 211.879 80.5484 212.318 79.0284 212.244C76.4091 212.131 73.7989 212.776 71.1751 212.384C69.7321 212.159 68.2754 212.337 66.8278 212.3C64.9135 212.102 62.9952 212.133 61.0827 212.393C60.6077 212.701 60.1055 212.393 59.626 212.608C59.1239 212.458 58.676 212.001 58.1784 212.487C58.0698 212.487 57.9387 212.487 57.8346 212.487C57.2239 212.589 56.6403 212.617 56.0251 212.599C55.9889 212.122 55.8622 212.029 55.627 212.094C55.4081 212.381 55.1635 212.575 54.9077 212.664C54.772 212.608 54.6092 212.664 54.5323 212.328C54.5245 212.223 54.5049 212.124 54.475 212.037C54.4452 211.951 54.4059 211.881 54.3604 211.832C54.26 211.775 54.1568 211.74 54.0527 211.73C53.5714 211.635 53.0871 211.833 52.6594 212.3C52.5831 212.328 52.505 212.328 52.4287 212.3C52.3021 212.214 52.1684 212.181 52.0355 212.204C51.9027 212.226 51.7734 212.303 51.6552 212.43C51.5423 212.449 51.4288 212.449 51.3159 212.43C51.0671 212.253 50.8138 212.113 50.574 211.907C50.2935 211.374 50.0176 212.477 49.7416 211.907C49.5894 211.7 49.4124 211.585 49.2304 211.573C49.0483 211.562 48.8683 211.655 48.7102 211.842C48.0814 212.851 47.2852 212.038 46.6021 212.561L46.3533 212.515C46.0643 212.424 45.7787 212.293 45.4984 212.122C45.2812 211.907 45.0822 211.496 44.8107 211.888C44.7655 211.972 44.7474 212.346 44.7022 212.44C44.6569 212.533 44.6072 212.234 44.5755 212.318C44.5438 212.402 44.4307 212.599 44.3629 212.599C42.4629 212.449 40.581 212.599 38.681 212.599C36.2473 212.599 33.809 212.103 31.3707 212.384C30.6695 212.458 29.8869 212.683 29.2807 212.159C28.8283 211.776 28.6881 211.374 28.3986 212.159C28.186 212.73 27.7426 212.617 27.4938 212.458C26.8288 212.038 26.2045 212.365 25.5531 212.356C25.2093 212.823 24.8565 212.402 24.5127 212.178C24.2322 212.131 24.0151 212.851 23.6893 212.58C22.9429 211.972 22.1648 212.496 21.4275 212.505C19.5456 212.505 17.6818 212.571 15.7999 212.664C14.0583 212.739 12.3619 212.589 10.6202 212.664C9.16922 212.77 7.71648 212.714 6.2684 212.496C6.01508 212.496 5.85672 211.972 5.63506 212.159C4.41365 212.244 0.998215 212.159 0.998215 212.159V210.795H180.668V212.3Z" fill="#F2E8D9" fill-opacity="0.5"/>
<path d="M3.44298 1.33643C3.44298 2.98492 3.56429 4.60716 3.44298 6.24515C3.41608 7.04911 3.50032 7.85303 3.69493 8.64964V9.05388C2.92977 9.64713 3.63894 10.2509 3.63894 10.8494C3.90955 11.3166 3.359 11.8049 3.76025 12.2669C3.10706 12.9494 3.70426 13.4429 3.52696 14.0256C3.64379 14.1429 3.70786 14.2745 3.71359 14.4089C3.2097 15.5743 3.59228 16.7556 3.49897 17.9316C3.44337 18.1129 3.50635 18.2994 3.67626 18.4566C3.96302 18.6286 4.12873 18.8535 4.14246 19.0892C4.1562 19.3249 4.01702 19.5554 3.75091 19.7376C3.59228 19.8636 3.24703 19.9581 3.39633 20.1523C4.21748 21.2023 3.5083 22.2838 3.61095 23.3338C3.93755 26.2884 3.93755 29.2516 3.61095 32.2063C3.61095 34.385 3.61095 36.5742 3.387 38.753C3.387 39.047 3.387 39.4407 3.8349 39.488C4.18948 39.446 4.28279 39.7715 3.99353 39.9447C2.80846 40.6482 3.55496 41.5617 3.43365 42.4017C3.36146 43.1632 3.39265 43.9266 3.52696 44.6854C3.61095 45.3417 3.62961 46.0609 3.79757 46.7434C3.84423 46.9429 3.9842 47.1214 3.70426 47.2947C3.53327 47.4004 3.40874 47.5271 3.34067 47.6648C3.27261 47.8025 3.2629 47.9473 3.31235 48.0874C3.28904 48.2359 3.28904 48.3852 3.31235 48.5337C3.49888 49.1399 3.49888 49.7597 3.31235 50.3659C3.75091 50.8909 2.66849 51.6784 4.04951 52.1036C4.4041 53.5946 3.76025 55.0594 3.64827 56.5504C3.43365 59.4379 3.86289 62.3253 3.88155 65.2076C3.88155 66.9873 3.44298 68.7618 3.71359 70.5731C3.85356 71.4865 4.77735 72.673 3.99353 73.5498C3.48031 74.143 2.99508 74.4213 3.52696 74.7993C3.34967 75.0093 3.58295 75.277 3.24703 75.4713C4.87066 75.172 3.41499 76.3585 3.40566 76.2535C3.40566 76.663 3.77891 77.0883 3.359 77.482C3.26569 78.4375 3.24703 79.6765 3.26569 80.779C3.32168 84.0655 3.12572 87.415 3.26569 90.5965C3.22588 91.453 3.4178 92.3081 3.8349 93.1322C4.32945 94.3449 3.34034 95.5839 3.55496 96.8072C3.94687 99.0227 3.55496 101.243 3.67626 103.459C3.72551 104.886 3.62269 106.313 3.36833 107.732C2.96251 109.816 2.98129 111.919 3.42432 114.001C3.86289 115.754 3.42432 117.529 3.49897 119.293C3.61095 122.333 2.96709 125.362 3.359 128.407C3.58295 130.081 3.40566 131.772 3.44298 133.452C3.64051 135.674 3.60936 137.9 3.34967 140.119C3.04174 140.671 3.34967 141.253 3.13505 141.81C3.28435 142.393 3.74158 142.912 3.25636 143.49C3.25636 143.616 3.25636 143.768 3.25636 143.889C3.15372 144.598 3.12572 145.275 3.14438 145.989C3.62028 146.031 3.71359 146.178 3.64827 146.451C3.36129 146.705 3.16775 146.989 3.07907 147.286C3.13505 147.443 3.07907 147.632 3.41499 147.721C3.51951 147.73 3.61878 147.753 3.70472 147.788C3.79065 147.822 3.86083 147.868 3.90955 147.921C3.96715 148.037 4.00158 148.157 4.01219 148.278C4.10629 148.837 3.90846 149.399 3.44298 149.895C3.41506 149.983 3.41506 150.074 3.44298 150.163C3.52868 150.31 3.56126 150.465 3.53883 150.619C3.51639 150.773 3.43939 150.923 3.31235 151.06C3.29374 151.191 3.29374 151.323 3.31235 151.454C3.48964 151.743 3.62961 152.037 3.8349 152.315C4.36678 152.641 3.26569 152.961 3.8349 153.281C4.04119 153.458 4.1565 153.663 4.16803 153.874C4.17956 154.086 4.08686 154.295 3.90021 154.478C2.89244 155.208 3.70426 156.132 3.18171 156.925L3.22836 157.213C3.31884 157.549 3.44978 157.88 3.62028 158.206C3.8349 158.458 4.24547 158.689 3.85356 159.004C3.76958 159.056 3.39633 159.077 3.30301 159.13C3.2097 159.182 3.5083 159.24 3.42432 159.277C3.34034 159.313 3.14438 159.445 3.14438 159.523C3.29368 161.728 3.14438 163.912 3.14438 166.117C3.14438 168.942 3.63894 171.772 3.359 174.601C3.28435 175.415 3.0604 176.323 3.58295 177.027C3.96553 177.552 4.36678 177.714 3.58295 178.05C3.01375 178.297 3.12572 178.812 3.28435 179.1C3.70426 179.872 3.37766 180.597 3.387 181.353C2.92043 181.752 3.34034 182.161 3.56429 182.56C3.61095 182.886 2.89244 183.138 3.16305 183.516C3.76958 184.382 3.24703 185.285 3.2377 186.141C3.2377 188.325 3.17238 190.488 3.07907 192.672C3.00442 194.693 3.15372 196.662 3.07907 198.683C2.97297 200.367 3.02904 202.053 3.24703 203.733C3.24703 204.027 3.76958 204.211 3.58295 204.468C3.49897 205.886 3.58295 209.85 3.58295 209.85H4.94531L4.94531 1.33643H3.44298Z" fill="#F2E8D9" fill-opacity="0.5"/>
<path d="M575.557 217.85C575.557 216.134 575.436 214.446 575.557 212.741C575.584 211.904 575.5 211.068 575.305 210.239V209.818C576.07 209.201 575.361 208.572 575.361 207.949C575.09 207.463 575.641 206.955 575.24 206.474C575.893 205.764 575.296 205.25 575.473 204.644C575.356 204.522 575.292 204.385 575.286 204.245C575.79 203.032 575.408 201.803 575.501 200.579C575.557 200.39 575.494 200.196 575.324 200.033C575.037 199.854 574.871 199.62 574.858 199.374C574.844 199.129 574.983 198.889 575.249 198.699C575.408 198.568 575.753 198.47 575.604 198.268C574.783 197.175 575.492 196.05 575.389 194.957C575.062 191.882 575.062 188.798 575.389 185.723C575.389 183.456 575.389 181.178 575.613 178.91C575.613 178.604 575.613 178.194 575.165 178.145C574.811 178.189 574.717 177.85 575.006 177.67C576.192 176.938 575.445 175.987 575.566 175.113C575.639 174.32 575.607 173.526 575.473 172.736C575.389 172.053 575.37 171.305 575.202 170.594C575.156 170.387 575.016 170.201 575.296 170.021C575.467 169.911 575.591 169.779 575.659 169.636C575.727 169.492 575.737 169.342 575.688 169.196C575.711 169.041 575.711 168.886 575.688 168.731C575.501 168.1 575.501 167.455 575.688 166.825C575.249 166.278 576.332 165.459 574.95 165.016C574.596 163.464 575.24 161.94 575.352 160.388C575.566 157.383 575.137 154.378 575.118 151.379C575.118 149.527 575.557 147.68 575.286 145.795C575.146 144.844 574.223 143.609 575.006 142.697C575.52 142.08 576.005 141.79 575.473 141.397C575.65 141.178 575.417 140.899 575.753 140.697C574.129 141.009 575.585 139.774 575.594 139.883C575.594 139.457 575.221 139.015 575.641 138.605C575.734 137.61 575.753 136.321 575.734 135.174C575.678 131.753 575.874 128.268 575.734 124.957C575.774 124.065 575.582 123.175 575.165 122.318C574.671 121.055 575.66 119.766 575.445 118.493C575.053 116.187 575.445 113.876 575.324 111.571C575.274 110.086 575.377 108.601 575.632 107.123C576.037 104.954 576.019 102.766 575.576 100.6C575.137 98.7747 575.576 96.928 575.501 95.0922C575.389 91.9288 576.033 88.7762 575.641 85.6073C575.417 83.8644 575.594 82.1051 575.557 80.3567C575.359 78.0447 575.391 75.7278 575.65 73.4179C575.958 72.8442 575.65 72.2377 575.865 71.6586C575.716 71.0521 575.258 70.5112 575.744 69.9102C575.744 69.7791 575.744 69.6207 575.744 69.495C575.846 68.7574 575.874 68.0526 575.856 67.3095C575.38 67.2658 575.286 67.1128 575.352 66.8287C575.639 66.5643 575.832 66.2689 575.921 65.96C575.865 65.7961 575.921 65.5994 575.585 65.5065C575.48 65.4971 575.381 65.4734 575.295 65.4374C575.209 65.4013 575.139 65.3539 575.09 65.2989C575.033 65.1777 574.998 65.0531 574.988 64.9274C574.894 64.3459 575.092 63.7611 575.557 63.2446C575.585 63.1524 575.585 63.0581 575.557 62.9659C575.471 62.8129 575.439 62.6515 575.461 62.491C575.484 62.3306 575.561 62.1744 575.688 62.0316C575.706 61.8953 575.706 61.7582 575.688 61.6219C575.51 61.3214 575.37 61.0154 575.165 60.7258C574.633 60.3871 575.734 60.0538 575.165 59.7205C574.959 59.5366 574.844 59.3229 574.832 59.1031C574.82 58.8832 574.913 58.6657 575.1 58.4748C576.108 57.7153 575.296 56.7538 575.818 55.9287L575.772 55.6282C575.681 55.2792 575.55 54.9342 575.38 54.5956C575.165 54.3333 574.755 54.0929 575.146 53.7651C575.23 53.7105 575.604 53.6886 575.697 53.634C575.79 53.5794 575.492 53.5193 575.576 53.481C575.66 53.4428 575.856 53.3062 575.856 53.2242C575.706 50.9295 575.856 48.6566 575.856 46.3619C575.856 43.4224 575.361 40.4775 575.641 37.5326C575.716 36.6857 575.94 35.7405 575.417 35.0084C575.034 34.462 574.633 34.2926 575.417 33.943C575.986 33.6862 575.874 33.1507 575.716 32.8503C575.296 32.0471 575.622 31.2931 575.613 30.5063C576.08 30.0911 575.66 29.6649 575.436 29.2497C575.389 28.9109 576.108 28.6487 575.837 28.2553C575.23 27.3538 575.753 26.4141 575.762 25.5235C575.762 23.2506 575.828 20.9996 575.921 18.7267C575.996 16.6232 575.846 14.5743 575.921 12.4708C576.027 10.7183 575.971 8.96375 575.753 7.21478C575.753 6.90883 575.23 6.71758 575.417 6.44986C575.501 4.97467 575.417 0.849609 575.417 0.849609H574.055V217.85H575.557Z" fill="#F2E8D9" fill-opacity="0.5"/>
</svg>
